<svg width="25" height="24" fill="currentColor" xmlns="http://www.w3.org/2000/svg"><path d="M12.5 0C5.5937 0 0 5.5095 0 12.3045c0 5.4375 3.5812 10.0486 8.5469 11.6743.625.1158.8541-.2651.8541-.5917 0-.2921-.0104-1.0664-.0156-2.0921-3.477.7419-4.2104-1.6508-4.2104-1.6508-.5687-1.4201-1.3906-1.7999-1.3906-1.7999-1.1323-.7628.0875-.7472.0875-.7472 1.2552.0856 1.9146 1.2678 1.9146 1.2678 1.1145 1.8814 2.926 1.3378 3.6406 1.0237.1125-.7962.4344-1.3377.7917-1.6456-2.776-.3078-5.6938-1.3659-5.6938-6.0802 0-1.343.4844-2.4407 1.2865-3.3015-.1407-.311-.5625-1.5621.1093-3.2567 0 0 1.047-.3297 3.4375 1.2616 1-.2734 2.0625-.409 3.125-.4153 1.0625.0062 2.125.1419 3.125.4153 2.375-1.5913 3.4219-1.2616 3.4219-1.2616.6719 1.6946.25 2.9457.125 3.2567.7969.8608 1.2813 1.9585 1.2813 3.3015 0 4.7269-2.9219 5.7672-5.7032 6.0698.4375.3694.8438 1.1238.8438 2.2768 0 1.6466-.0156 2.9697-.0156 3.3694 0 .3224.2187.7074.8593.5843C21.4219 22.3478 25 17.7336 25 12.3045 25 5.5095 19.4031 0 12.5 0z"/></svg>
